G04 #@! TF.FileFunction,Legend,Bot*
%FSLAX46Y46*%
G04 Gerber Fmt 4.6, Leading zero omitted, Abs format (unit mm)*
G04 Created by KiCad (PCBNEW 4.0.2-1.fc23-product) date Thu May 26 09:48:37 2016*
%MOMM*%
G01*
G04 APERTURE LIST*
%ADD10C,0.100000*%
%ADD11C,0.300000*%
%ADD12C,0.150000*%
G04 APERTURE END LIST*
D10*
D11*
X172158571Y-113778571D02*
X172872857Y-113778571D01*
X172872857Y-112278571D01*
X171372857Y-112278571D02*
X171087143Y-112278571D01*
X170944285Y-112350000D01*
X170801428Y-112492857D01*
X170730000Y-112778571D01*
X170730000Y-113278571D01*
X170801428Y-113564286D01*
X170944285Y-113707143D01*
X171087143Y-113778571D01*
X171372857Y-113778571D01*
X171515714Y-113707143D01*
X171658571Y-113564286D01*
X171730000Y-113278571D01*
X171730000Y-112778571D01*
X171658571Y-112492857D01*
X171515714Y-112350000D01*
X171372857Y-112278571D01*
X169801428Y-112278571D02*
X169515714Y-112278571D01*
X169372856Y-112350000D01*
X169229999Y-112492857D01*
X169158571Y-112778571D01*
X169158571Y-113278571D01*
X169229999Y-113564286D01*
X169372856Y-113707143D01*
X169515714Y-113778571D01*
X169801428Y-113778571D01*
X169944285Y-113707143D01*
X170087142Y-113564286D01*
X170158571Y-113278571D01*
X170158571Y-112778571D01*
X170087142Y-112492857D01*
X169944285Y-112350000D01*
X169801428Y-112278571D01*
X168515713Y-113778571D02*
X168515713Y-112278571D01*
X167944285Y-112278571D01*
X167801427Y-112350000D01*
X167729999Y-112421429D01*
X167658570Y-112564286D01*
X167658570Y-112778571D01*
X167729999Y-112921429D01*
X167801427Y-112992857D01*
X167944285Y-113064286D01*
X168515713Y-113064286D01*
X165944285Y-113350000D02*
X165229999Y-113350000D01*
X166087142Y-113778571D02*
X165587142Y-112278571D01*
X165087142Y-113778571D01*
X164587142Y-113778571D02*
X164587142Y-112278571D01*
X163729999Y-113778571D01*
X163729999Y-112278571D01*
X163229999Y-112278571D02*
X162372856Y-112278571D01*
X162801427Y-113778571D02*
X162801427Y-112278571D01*
X161872856Y-112992857D02*
X161372856Y-112992857D01*
X161158570Y-113778571D02*
X161872856Y-113778571D01*
X161872856Y-112278571D01*
X161158570Y-112278571D01*
X160515713Y-113778571D02*
X160515713Y-112278571D01*
X159658570Y-113778571D01*
X159658570Y-112278571D01*
X158944284Y-113778571D02*
X158944284Y-112278571D01*
X158087141Y-113778571D01*
X158087141Y-112278571D01*
X157444284Y-113350000D02*
X156729998Y-113350000D01*
X157587141Y-113778571D02*
X157087141Y-112278571D01*
X156587141Y-113778571D01*
X155158570Y-112278571D02*
X154301427Y-112278571D01*
X154729998Y-113778571D02*
X154729998Y-112278571D01*
X153801427Y-112992857D02*
X153301427Y-112992857D01*
X153087141Y-113778571D02*
X153801427Y-113778571D01*
X153801427Y-112278571D01*
X153087141Y-112278571D01*
X152515713Y-113707143D02*
X152301427Y-113778571D01*
X151944284Y-113778571D01*
X151801427Y-113707143D01*
X151729998Y-113635714D01*
X151658570Y-113492857D01*
X151658570Y-113350000D01*
X151729998Y-113207143D01*
X151801427Y-113135714D01*
X151944284Y-113064286D01*
X152229998Y-112992857D01*
X152372856Y-112921429D01*
X152444284Y-112850000D01*
X152515713Y-112707143D01*
X152515713Y-112564286D01*
X152444284Y-112421429D01*
X152372856Y-112350000D01*
X152229998Y-112278571D01*
X151872856Y-112278571D01*
X151658570Y-112350000D01*
X151229999Y-112278571D02*
X150372856Y-112278571D01*
X150801427Y-113778571D02*
X150801427Y-112278571D01*
X148229999Y-112992857D02*
X148015713Y-113064286D01*
X147944285Y-113135714D01*
X147872856Y-113278571D01*
X147872856Y-113492857D01*
X147944285Y-113635714D01*
X148015713Y-113707143D01*
X148158571Y-113778571D01*
X148729999Y-113778571D01*
X148729999Y-112278571D01*
X148229999Y-112278571D01*
X148087142Y-112350000D01*
X148015713Y-112421429D01*
X147944285Y-112564286D01*
X147944285Y-112707143D01*
X148015713Y-112850000D01*
X148087142Y-112921429D01*
X148229999Y-112992857D01*
X148729999Y-112992857D01*
X146944285Y-112278571D02*
X146658571Y-112278571D01*
X146515713Y-112350000D01*
X146372856Y-112492857D01*
X146301428Y-112778571D01*
X146301428Y-113278571D01*
X146372856Y-113564286D01*
X146515713Y-113707143D01*
X146658571Y-113778571D01*
X146944285Y-113778571D01*
X147087142Y-113707143D01*
X147229999Y-113564286D01*
X147301428Y-113278571D01*
X147301428Y-112778571D01*
X147229999Y-112492857D01*
X147087142Y-112350000D01*
X146944285Y-112278571D01*
X145729999Y-113350000D02*
X145015713Y-113350000D01*
X145872856Y-113778571D02*
X145372856Y-112278571D01*
X144872856Y-113778571D01*
X143515713Y-113778571D02*
X144015713Y-113064286D01*
X144372856Y-113778571D02*
X144372856Y-112278571D01*
X143801428Y-112278571D01*
X143658570Y-112350000D01*
X143587142Y-112421429D01*
X143515713Y-112564286D01*
X143515713Y-112778571D01*
X143587142Y-112921429D01*
X143658570Y-112992857D01*
X143801428Y-113064286D01*
X144372856Y-113064286D01*
X142872856Y-113778571D02*
X142872856Y-112278571D01*
X142515713Y-112278571D01*
X142301428Y-112350000D01*
X142158570Y-112492857D01*
X142087142Y-112635714D01*
X142015713Y-112921429D01*
X142015713Y-113135714D01*
X142087142Y-113421429D01*
X142158570Y-113564286D01*
X142301428Y-113707143D01*
X142515713Y-113778571D01*
X142872856Y-113778571D01*
X161408571Y-114678571D02*
X160908571Y-116178571D01*
X160408571Y-114678571D01*
X157980000Y-116178571D02*
X158837143Y-116178571D01*
X158408571Y-116178571D02*
X158408571Y-114678571D01*
X158551428Y-114892857D01*
X158694286Y-115035714D01*
X158837143Y-115107143D01*
X157337143Y-116035714D02*
X157265715Y-116107143D01*
X157337143Y-116178571D01*
X157408572Y-116107143D01*
X157337143Y-116035714D01*
X157337143Y-116178571D01*
X156337143Y-114678571D02*
X156194286Y-114678571D01*
X156051429Y-114750000D01*
X155980000Y-114821429D01*
X155908571Y-114964286D01*
X155837143Y-115250000D01*
X155837143Y-115607143D01*
X155908571Y-115892857D01*
X155980000Y-116035714D01*
X156051429Y-116107143D01*
X156194286Y-116178571D01*
X156337143Y-116178571D01*
X156480000Y-116107143D01*
X156551429Y-116035714D01*
X156622857Y-115892857D01*
X156694286Y-115607143D01*
X156694286Y-115250000D01*
X156622857Y-114964286D01*
X156551429Y-114821429D01*
X156480000Y-114750000D01*
X156337143Y-114678571D01*
X155194286Y-116035714D02*
X155122858Y-116107143D01*
X155194286Y-116178571D01*
X155265715Y-116107143D01*
X155194286Y-116035714D01*
X155194286Y-116178571D01*
X154194286Y-114678571D02*
X154051429Y-114678571D01*
X153908572Y-114750000D01*
X153837143Y-114821429D01*
X153765714Y-114964286D01*
X153694286Y-115250000D01*
X153694286Y-115607143D01*
X153765714Y-115892857D01*
X153837143Y-116035714D01*
X153908572Y-116107143D01*
X154051429Y-116178571D01*
X154194286Y-116178571D01*
X154337143Y-116107143D01*
X154408572Y-116035714D01*
X154480000Y-115892857D01*
X154551429Y-115607143D01*
X154551429Y-115250000D01*
X154480000Y-114964286D01*
X154408572Y-114821429D01*
X154337143Y-114750000D01*
X154194286Y-114678571D01*
X163888571Y-122598571D02*
X163888571Y-121098571D01*
X163245714Y-122598571D02*
X163245714Y-121812857D01*
X163317143Y-121670000D01*
X163460000Y-121598571D01*
X163674285Y-121598571D01*
X163817143Y-121670000D01*
X163888571Y-121741429D01*
X162317142Y-122598571D02*
X162460000Y-122527143D01*
X162531428Y-122455714D01*
X162602857Y-122312857D01*
X162602857Y-121884286D01*
X162531428Y-121741429D01*
X162460000Y-121670000D01*
X162317142Y-121598571D01*
X162102857Y-121598571D01*
X161960000Y-121670000D01*
X161888571Y-121741429D01*
X161817142Y-121884286D01*
X161817142Y-122312857D01*
X161888571Y-122455714D01*
X161960000Y-122527143D01*
X162102857Y-122598571D01*
X162317142Y-122598571D01*
X160531428Y-122527143D02*
X160674285Y-122598571D01*
X160959999Y-122598571D01*
X161102857Y-122527143D01*
X161174285Y-122455714D01*
X161245714Y-122312857D01*
X161245714Y-121884286D01*
X161174285Y-121741429D01*
X161102857Y-121670000D01*
X160959999Y-121598571D01*
X160674285Y-121598571D01*
X160531428Y-121670000D01*
X159888571Y-122598571D02*
X159888571Y-121098571D01*
X159245714Y-122598571D02*
X159245714Y-121812857D01*
X159317143Y-121670000D01*
X159460000Y-121598571D01*
X159674285Y-121598571D01*
X159817143Y-121670000D01*
X159888571Y-121741429D01*
X158531428Y-122598571D02*
X158531428Y-121598571D01*
X158531428Y-121884286D02*
X158460000Y-121741429D01*
X158388571Y-121670000D01*
X158245714Y-121598571D01*
X158102857Y-121598571D01*
X157031429Y-122527143D02*
X157174286Y-122598571D01*
X157460000Y-122598571D01*
X157602857Y-122527143D01*
X157674286Y-122384286D01*
X157674286Y-121812857D01*
X157602857Y-121670000D01*
X157460000Y-121598571D01*
X157174286Y-121598571D01*
X157031429Y-121670000D01*
X156960000Y-121812857D01*
X156960000Y-121955714D01*
X157674286Y-122098571D01*
X156317143Y-122598571D02*
X156317143Y-121598571D01*
X156317143Y-121098571D02*
X156388572Y-121170000D01*
X156317143Y-121241429D01*
X156245715Y-121170000D01*
X156317143Y-121098571D01*
X156317143Y-121241429D01*
X155602857Y-121598571D02*
X155602857Y-122598571D01*
X155602857Y-121741429D02*
X155531429Y-121670000D01*
X155388571Y-121598571D01*
X155174286Y-121598571D01*
X155031429Y-121670000D01*
X154960000Y-121812857D01*
X154960000Y-122598571D01*
X153674286Y-122527143D02*
X153817143Y-122598571D01*
X154102857Y-122598571D01*
X154245714Y-122527143D01*
X154317143Y-122384286D01*
X154317143Y-121812857D01*
X154245714Y-121670000D01*
X154102857Y-121598571D01*
X153817143Y-121598571D01*
X153674286Y-121670000D01*
X153602857Y-121812857D01*
X153602857Y-121955714D01*
X154317143Y-122098571D01*
X152960000Y-122598571D02*
X152960000Y-121598571D01*
X152960000Y-121884286D02*
X152888572Y-121741429D01*
X152817143Y-121670000D01*
X152674286Y-121598571D01*
X152531429Y-121598571D01*
X152031429Y-122455714D02*
X151960001Y-122527143D01*
X152031429Y-122598571D01*
X152102858Y-122527143D01*
X152031429Y-122455714D01*
X152031429Y-122598571D01*
X151317143Y-121598571D02*
X151317143Y-122598571D01*
X151317143Y-121741429D02*
X151245715Y-121670000D01*
X151102857Y-121598571D01*
X150888572Y-121598571D01*
X150745715Y-121670000D01*
X150674286Y-121812857D01*
X150674286Y-122598571D01*
X149388572Y-122527143D02*
X149531429Y-122598571D01*
X149817143Y-122598571D01*
X149960000Y-122527143D01*
X150031429Y-122384286D01*
X150031429Y-121812857D01*
X149960000Y-121670000D01*
X149817143Y-121598571D01*
X149531429Y-121598571D01*
X149388572Y-121670000D01*
X149317143Y-121812857D01*
X149317143Y-121955714D01*
X150031429Y-122098571D01*
X148888572Y-121598571D02*
X148317143Y-121598571D01*
X148674286Y-121098571D02*
X148674286Y-122384286D01*
X148602858Y-122527143D01*
X148460000Y-122598571D01*
X148317143Y-122598571D01*
D12*
X135421666Y-130627381D02*
X135755000Y-130151190D01*
X135993095Y-130627381D02*
X135993095Y-129627381D01*
X135612142Y-129627381D01*
X135516904Y-129675000D01*
X135469285Y-129722619D01*
X135421666Y-129817857D01*
X135421666Y-129960714D01*
X135469285Y-130055952D01*
X135516904Y-130103571D01*
X135612142Y-130151190D01*
X135993095Y-130151190D01*
X135040714Y-129722619D02*
X134993095Y-129675000D01*
X134897857Y-129627381D01*
X134659761Y-129627381D01*
X134564523Y-129675000D01*
X134516904Y-129722619D01*
X134469285Y-129817857D01*
X134469285Y-129913095D01*
X134516904Y-130055952D01*
X135088333Y-130627381D01*
X134469285Y-130627381D01*
M02*
