G04 #@! TF.FileFunction,Legend,Top*
%FSLAX46Y46*%
G04 Gerber Fmt 4.6, Leading zero omitted, Abs format (unit mm)*
G04 Created by KiCad (PCBNEW 4.0.2-1.fc23-product) date Thu May 26 09:48:37 2016*
%MOMM*%
G01*
G04 APERTURE LIST*
%ADD10C,0.100000*%
%ADD11C,0.127000*%
%ADD12C,0.300000*%
%ADD13C,0.150000*%
G04 APERTURE END LIST*
D10*
D11*
X134517190Y-105639810D02*
X134347857Y-105397905D01*
X134226904Y-105639810D02*
X134226904Y-105131810D01*
X134420428Y-105131810D01*
X134468809Y-105156000D01*
X134493000Y-105180190D01*
X134517190Y-105228571D01*
X134517190Y-105301143D01*
X134493000Y-105349524D01*
X134468809Y-105373714D01*
X134420428Y-105397905D01*
X134226904Y-105397905D01*
X134734904Y-105373714D02*
X134904238Y-105373714D01*
X134976809Y-105639810D02*
X134734904Y-105639810D01*
X134734904Y-105131810D01*
X134976809Y-105131810D01*
X135170333Y-105615619D02*
X135242904Y-105639810D01*
X135363857Y-105639810D01*
X135412238Y-105615619D01*
X135436428Y-105591429D01*
X135460619Y-105543048D01*
X135460619Y-105494667D01*
X135436428Y-105446286D01*
X135412238Y-105422095D01*
X135363857Y-105397905D01*
X135267095Y-105373714D01*
X135218714Y-105349524D01*
X135194523Y-105325333D01*
X135170333Y-105276952D01*
X135170333Y-105228571D01*
X135194523Y-105180190D01*
X135218714Y-105156000D01*
X135267095Y-105131810D01*
X135388047Y-105131810D01*
X135460619Y-105156000D01*
X135678333Y-105373714D02*
X135847667Y-105373714D01*
X135920238Y-105639810D02*
X135678333Y-105639810D01*
X135678333Y-105131810D01*
X135920238Y-105131810D01*
X136065381Y-105131810D02*
X136355667Y-105131810D01*
X136210524Y-105639810D02*
X136210524Y-105131810D01*
X144786047Y-105639810D02*
X144786047Y-105131810D01*
X145076333Y-105639810D01*
X145076333Y-105131810D01*
X145294047Y-105615619D02*
X145366618Y-105639810D01*
X145487571Y-105639810D01*
X145535952Y-105615619D01*
X145560142Y-105591429D01*
X145584333Y-105543048D01*
X145584333Y-105494667D01*
X145560142Y-105446286D01*
X145535952Y-105422095D01*
X145487571Y-105397905D01*
X145390809Y-105373714D01*
X145342428Y-105349524D01*
X145318237Y-105325333D01*
X145294047Y-105276952D01*
X145294047Y-105228571D01*
X145318237Y-105180190D01*
X145342428Y-105156000D01*
X145390809Y-105131810D01*
X145511761Y-105131810D01*
X145584333Y-105156000D01*
X145777857Y-105615619D02*
X145850428Y-105639810D01*
X145971381Y-105639810D01*
X146019762Y-105615619D01*
X146043952Y-105591429D01*
X146068143Y-105543048D01*
X146068143Y-105494667D01*
X146043952Y-105446286D01*
X146019762Y-105422095D01*
X145971381Y-105397905D01*
X145874619Y-105373714D01*
X145826238Y-105349524D01*
X145802047Y-105325333D01*
X145777857Y-105276952D01*
X145777857Y-105228571D01*
X145802047Y-105180190D01*
X145826238Y-105156000D01*
X145874619Y-105131810D01*
X145995571Y-105131810D01*
X146068143Y-105156000D01*
X142076714Y-105639810D02*
X142076714Y-105131810D01*
X142246048Y-105494667D01*
X142415381Y-105131810D01*
X142415381Y-105639810D01*
X142754047Y-105131810D02*
X142850809Y-105131810D01*
X142899190Y-105156000D01*
X142947571Y-105204381D01*
X142971762Y-105301143D01*
X142971762Y-105470476D01*
X142947571Y-105567238D01*
X142899190Y-105615619D01*
X142850809Y-105639810D01*
X142754047Y-105639810D01*
X142705666Y-105615619D01*
X142657285Y-105567238D01*
X142633095Y-105470476D01*
X142633095Y-105301143D01*
X142657285Y-105204381D01*
X142705666Y-105156000D01*
X142754047Y-105131810D01*
X143165285Y-105615619D02*
X143237856Y-105639810D01*
X143358809Y-105639810D01*
X143407190Y-105615619D01*
X143431380Y-105591429D01*
X143455571Y-105543048D01*
X143455571Y-105494667D01*
X143431380Y-105446286D01*
X143407190Y-105422095D01*
X143358809Y-105397905D01*
X143262047Y-105373714D01*
X143213666Y-105349524D01*
X143189475Y-105325333D01*
X143165285Y-105276952D01*
X143165285Y-105228571D01*
X143189475Y-105180190D01*
X143213666Y-105156000D01*
X143262047Y-105131810D01*
X143382999Y-105131810D01*
X143455571Y-105156000D01*
X143673285Y-105639810D02*
X143673285Y-105131810D01*
X139536714Y-105639810D02*
X139536714Y-105131810D01*
X139706048Y-105494667D01*
X139875381Y-105131810D01*
X139875381Y-105639810D01*
X140117285Y-105639810D02*
X140117285Y-105131810D01*
X140335000Y-105615619D02*
X140407571Y-105639810D01*
X140528524Y-105639810D01*
X140576905Y-105615619D01*
X140601095Y-105591429D01*
X140625286Y-105543048D01*
X140625286Y-105494667D01*
X140601095Y-105446286D01*
X140576905Y-105422095D01*
X140528524Y-105397905D01*
X140431762Y-105373714D01*
X140383381Y-105349524D01*
X140359190Y-105325333D01*
X140335000Y-105276952D01*
X140335000Y-105228571D01*
X140359190Y-105180190D01*
X140383381Y-105156000D01*
X140431762Y-105131810D01*
X140552714Y-105131810D01*
X140625286Y-105156000D01*
X140939762Y-105131810D02*
X141036524Y-105131810D01*
X141084905Y-105156000D01*
X141133286Y-105204381D01*
X141157477Y-105301143D01*
X141157477Y-105470476D01*
X141133286Y-105567238D01*
X141084905Y-105615619D01*
X141036524Y-105639810D01*
X140939762Y-105639810D01*
X140891381Y-105615619D01*
X140843000Y-105567238D01*
X140818810Y-105470476D01*
X140818810Y-105301143D01*
X140843000Y-105204381D01*
X140891381Y-105156000D01*
X140939762Y-105131810D01*
X137141857Y-105615619D02*
X137214428Y-105639810D01*
X137335381Y-105639810D01*
X137383762Y-105615619D01*
X137407952Y-105591429D01*
X137432143Y-105543048D01*
X137432143Y-105494667D01*
X137407952Y-105446286D01*
X137383762Y-105422095D01*
X137335381Y-105397905D01*
X137238619Y-105373714D01*
X137190238Y-105349524D01*
X137166047Y-105325333D01*
X137141857Y-105276952D01*
X137141857Y-105228571D01*
X137166047Y-105180190D01*
X137190238Y-105156000D01*
X137238619Y-105131810D01*
X137359571Y-105131810D01*
X137432143Y-105156000D01*
X137940143Y-105591429D02*
X137915953Y-105615619D01*
X137843381Y-105639810D01*
X137795000Y-105639810D01*
X137722429Y-105615619D01*
X137674048Y-105567238D01*
X137649857Y-105518857D01*
X137625667Y-105422095D01*
X137625667Y-105349524D01*
X137649857Y-105252762D01*
X137674048Y-105204381D01*
X137722429Y-105156000D01*
X137795000Y-105131810D01*
X137843381Y-105131810D01*
X137915953Y-105156000D01*
X137940143Y-105180190D01*
X138157857Y-105639810D02*
X138157857Y-105131810D01*
X138448143Y-105639810D02*
X138230429Y-105349524D01*
X138448143Y-105131810D02*
X138157857Y-105422095D01*
X147567953Y-105156000D02*
X147519572Y-105131810D01*
X147447000Y-105131810D01*
X147374429Y-105156000D01*
X147326048Y-105204381D01*
X147301857Y-105252762D01*
X147277667Y-105349524D01*
X147277667Y-105422095D01*
X147301857Y-105518857D01*
X147326048Y-105567238D01*
X147374429Y-105615619D01*
X147447000Y-105639810D01*
X147495381Y-105639810D01*
X147567953Y-105615619D01*
X147592143Y-105591429D01*
X147592143Y-105422095D01*
X147495381Y-105422095D01*
X147809857Y-105639810D02*
X147809857Y-105131810D01*
X148100143Y-105639810D01*
X148100143Y-105131810D01*
X148342047Y-105639810D02*
X148342047Y-105131810D01*
X148463000Y-105131810D01*
X148535571Y-105156000D01*
X148583952Y-105204381D01*
X148608143Y-105252762D01*
X148632333Y-105349524D01*
X148632333Y-105422095D01*
X148608143Y-105518857D01*
X148583952Y-105567238D01*
X148535571Y-105615619D01*
X148463000Y-105639810D01*
X148342047Y-105639810D01*
X134626047Y-123546810D02*
X134940524Y-123546810D01*
X134771190Y-123740333D01*
X134843762Y-123740333D01*
X134892143Y-123764524D01*
X134916333Y-123788714D01*
X134940524Y-123837095D01*
X134940524Y-123958048D01*
X134916333Y-124006429D01*
X134892143Y-124030619D01*
X134843762Y-124054810D01*
X134698619Y-124054810D01*
X134650238Y-124030619D01*
X134626047Y-124006429D01*
X135085667Y-123546810D02*
X135255000Y-124054810D01*
X135424334Y-123546810D01*
X135545286Y-123546810D02*
X135859763Y-123546810D01*
X135690429Y-123740333D01*
X135763001Y-123740333D01*
X135811382Y-123764524D01*
X135835572Y-123788714D01*
X135859763Y-123837095D01*
X135859763Y-123958048D01*
X135835572Y-124006429D01*
X135811382Y-124030619D01*
X135763001Y-124054810D01*
X135617858Y-124054810D01*
X135569477Y-124030619D01*
X135545286Y-124006429D01*
X137033000Y-124054810D02*
X137033000Y-123546810D01*
X137153953Y-123546810D01*
X137226524Y-123571000D01*
X137274905Y-123619381D01*
X137299096Y-123667762D01*
X137323286Y-123764524D01*
X137323286Y-123837095D01*
X137299096Y-123933857D01*
X137274905Y-123982238D01*
X137226524Y-124030619D01*
X137153953Y-124054810D01*
X137033000Y-124054810D01*
X137541000Y-124054810D02*
X137541000Y-123546810D01*
X137879667Y-123546810D02*
X137976429Y-123546810D01*
X138024810Y-123571000D01*
X138073191Y-123619381D01*
X138097382Y-123716143D01*
X138097382Y-123885476D01*
X138073191Y-123982238D01*
X138024810Y-124030619D01*
X137976429Y-124054810D01*
X137879667Y-124054810D01*
X137831286Y-124030619D01*
X137782905Y-123982238D01*
X137758715Y-123885476D01*
X137758715Y-123716143D01*
X137782905Y-123619381D01*
X137831286Y-123571000D01*
X137879667Y-123546810D01*
X138557000Y-123546810D02*
X138315095Y-123546810D01*
X138290905Y-123788714D01*
X138315095Y-123764524D01*
X138363476Y-123740333D01*
X138484429Y-123740333D01*
X138532810Y-123764524D01*
X138557000Y-123788714D01*
X138581191Y-123837095D01*
X138581191Y-123958048D01*
X138557000Y-124006429D01*
X138532810Y-124030619D01*
X138484429Y-124054810D01*
X138363476Y-124054810D01*
X138315095Y-124030619D01*
X138290905Y-124006429D01*
X139573000Y-124054810D02*
X139573000Y-123546810D01*
X139693953Y-123546810D01*
X139766524Y-123571000D01*
X139814905Y-123619381D01*
X139839096Y-123667762D01*
X139863286Y-123764524D01*
X139863286Y-123837095D01*
X139839096Y-123933857D01*
X139814905Y-123982238D01*
X139766524Y-124030619D01*
X139693953Y-124054810D01*
X139573000Y-124054810D01*
X140081000Y-124054810D02*
X140081000Y-123546810D01*
X140419667Y-123546810D02*
X140516429Y-123546810D01*
X140564810Y-123571000D01*
X140613191Y-123619381D01*
X140637382Y-123716143D01*
X140637382Y-123885476D01*
X140613191Y-123982238D01*
X140564810Y-124030619D01*
X140516429Y-124054810D01*
X140419667Y-124054810D01*
X140371286Y-124030619D01*
X140322905Y-123982238D01*
X140298715Y-123885476D01*
X140298715Y-123716143D01*
X140322905Y-123619381D01*
X140371286Y-123571000D01*
X140419667Y-123546810D01*
X141072810Y-123716143D02*
X141072810Y-124054810D01*
X140951857Y-123522619D02*
X140830905Y-123885476D01*
X141145381Y-123885476D01*
X142113000Y-124054810D02*
X142113000Y-123546810D01*
X142233953Y-123546810D01*
X142306524Y-123571000D01*
X142354905Y-123619381D01*
X142379096Y-123667762D01*
X142403286Y-123764524D01*
X142403286Y-123837095D01*
X142379096Y-123933857D01*
X142354905Y-123982238D01*
X142306524Y-124030619D01*
X142233953Y-124054810D01*
X142113000Y-124054810D01*
X142621000Y-124054810D02*
X142621000Y-123546810D01*
X142959667Y-123546810D02*
X143056429Y-123546810D01*
X143104810Y-123571000D01*
X143153191Y-123619381D01*
X143177382Y-123716143D01*
X143177382Y-123885476D01*
X143153191Y-123982238D01*
X143104810Y-124030619D01*
X143056429Y-124054810D01*
X142959667Y-124054810D01*
X142911286Y-124030619D01*
X142862905Y-123982238D01*
X142838715Y-123885476D01*
X142838715Y-123716143D01*
X142862905Y-123619381D01*
X142911286Y-123571000D01*
X142959667Y-123546810D01*
X143346714Y-123546810D02*
X143661191Y-123546810D01*
X143491857Y-123740333D01*
X143564429Y-123740333D01*
X143612810Y-123764524D01*
X143637000Y-123788714D01*
X143661191Y-123837095D01*
X143661191Y-123958048D01*
X143637000Y-124006429D01*
X143612810Y-124030619D01*
X143564429Y-124054810D01*
X143419286Y-124054810D01*
X143370905Y-124030619D01*
X143346714Y-124006429D01*
X144653000Y-124054810D02*
X144653000Y-123546810D01*
X144773953Y-123546810D01*
X144846524Y-123571000D01*
X144894905Y-123619381D01*
X144919096Y-123667762D01*
X144943286Y-123764524D01*
X144943286Y-123837095D01*
X144919096Y-123933857D01*
X144894905Y-123982238D01*
X144846524Y-124030619D01*
X144773953Y-124054810D01*
X144653000Y-124054810D01*
X145161000Y-124054810D02*
X145161000Y-123546810D01*
X145499667Y-123546810D02*
X145596429Y-123546810D01*
X145644810Y-123571000D01*
X145693191Y-123619381D01*
X145717382Y-123716143D01*
X145717382Y-123885476D01*
X145693191Y-123982238D01*
X145644810Y-124030619D01*
X145596429Y-124054810D01*
X145499667Y-124054810D01*
X145451286Y-124030619D01*
X145402905Y-123982238D01*
X145378715Y-123885476D01*
X145378715Y-123716143D01*
X145402905Y-123619381D01*
X145451286Y-123571000D01*
X145499667Y-123546810D01*
X145910905Y-123595190D02*
X145935095Y-123571000D01*
X145983476Y-123546810D01*
X146104429Y-123546810D01*
X146152810Y-123571000D01*
X146177000Y-123595190D01*
X146201191Y-123643571D01*
X146201191Y-123691952D01*
X146177000Y-123764524D01*
X145886714Y-124054810D01*
X146201191Y-124054810D01*
X147193000Y-124054810D02*
X147193000Y-123546810D01*
X147313953Y-123546810D01*
X147386524Y-123571000D01*
X147434905Y-123619381D01*
X147459096Y-123667762D01*
X147483286Y-123764524D01*
X147483286Y-123837095D01*
X147459096Y-123933857D01*
X147434905Y-123982238D01*
X147386524Y-124030619D01*
X147313953Y-124054810D01*
X147193000Y-124054810D01*
X147701000Y-124054810D02*
X147701000Y-123546810D01*
X148039667Y-123546810D02*
X148136429Y-123546810D01*
X148184810Y-123571000D01*
X148233191Y-123619381D01*
X148257382Y-123716143D01*
X148257382Y-123885476D01*
X148233191Y-123982238D01*
X148184810Y-124030619D01*
X148136429Y-124054810D01*
X148039667Y-124054810D01*
X147991286Y-124030619D01*
X147942905Y-123982238D01*
X147918715Y-123885476D01*
X147918715Y-123716143D01*
X147942905Y-123619381D01*
X147991286Y-123571000D01*
X148039667Y-123546810D01*
X148741191Y-124054810D02*
X148450905Y-124054810D01*
X148596048Y-124054810D02*
X148596048Y-123546810D01*
X148547667Y-123619381D01*
X148499286Y-123667762D01*
X148450905Y-123691952D01*
X149733000Y-124054810D02*
X149733000Y-123546810D01*
X149853953Y-123546810D01*
X149926524Y-123571000D01*
X149974905Y-123619381D01*
X149999096Y-123667762D01*
X150023286Y-123764524D01*
X150023286Y-123837095D01*
X149999096Y-123933857D01*
X149974905Y-123982238D01*
X149926524Y-124030619D01*
X149853953Y-124054810D01*
X149733000Y-124054810D01*
X150241000Y-124054810D02*
X150241000Y-123546810D01*
X150579667Y-123546810D02*
X150676429Y-123546810D01*
X150724810Y-123571000D01*
X150773191Y-123619381D01*
X150797382Y-123716143D01*
X150797382Y-123885476D01*
X150773191Y-123982238D01*
X150724810Y-124030619D01*
X150676429Y-124054810D01*
X150579667Y-124054810D01*
X150531286Y-124030619D01*
X150482905Y-123982238D01*
X150458715Y-123885476D01*
X150458715Y-123716143D01*
X150482905Y-123619381D01*
X150531286Y-123571000D01*
X150579667Y-123546810D01*
X151111857Y-123546810D02*
X151160238Y-123546810D01*
X151208619Y-123571000D01*
X151232810Y-123595190D01*
X151257000Y-123643571D01*
X151281191Y-123740333D01*
X151281191Y-123861286D01*
X151257000Y-123958048D01*
X151232810Y-124006429D01*
X151208619Y-124030619D01*
X151160238Y-124054810D01*
X151111857Y-124054810D01*
X151063476Y-124030619D01*
X151039286Y-124006429D01*
X151015095Y-123958048D01*
X150990905Y-123861286D01*
X150990905Y-123740333D01*
X151015095Y-123643571D01*
X151039286Y-123595190D01*
X151063476Y-123571000D01*
X151111857Y-123546810D01*
D12*
X167485715Y-113978571D02*
X167485715Y-114978571D01*
X167128572Y-113407143D02*
X166771429Y-114478571D01*
X167700001Y-114478571D01*
X168128572Y-113478571D02*
X169057143Y-113478571D01*
X168557143Y-114050000D01*
X168771429Y-114050000D01*
X168914286Y-114121429D01*
X168985715Y-114192857D01*
X169057143Y-114335714D01*
X169057143Y-114692857D01*
X168985715Y-114835714D01*
X168914286Y-114907143D01*
X168771429Y-114978571D01*
X168342857Y-114978571D01*
X168200000Y-114907143D01*
X168128572Y-114835714D01*
X170342857Y-113978571D02*
X170342857Y-114978571D01*
X169985714Y-113407143D02*
X169628571Y-114478571D01*
X170557143Y-114478571D01*
X172271428Y-114978571D02*
X172271428Y-113478571D01*
X172771428Y-114550000D01*
X173271428Y-113478571D01*
X173271428Y-114978571D01*
X173985714Y-114978571D02*
X173985714Y-113478571D01*
X173985714Y-114192857D02*
X174842857Y-114192857D01*
X174842857Y-114978571D02*
X174842857Y-113478571D01*
X175414286Y-113978571D02*
X176200000Y-113978571D01*
X175414286Y-114978571D01*
X176200000Y-114978571D01*
D13*
X160820000Y-115550000D02*
X160820000Y-118750000D01*
X159220000Y-115550000D02*
X159220000Y-118750000D01*
X158420000Y-114900000D02*
X161620000Y-114900000D01*
X161620000Y-119400000D02*
X158420000Y-119400000D01*
X161620000Y-114900000D02*
X161620000Y-119400000D01*
X158420000Y-114900000D02*
X158420000Y-119400000D01*
X161036000Y-105511600D02*
X161036000Y-107543600D01*
X159004000Y-105511600D02*
X159004000Y-107543600D01*
X161036000Y-107543600D02*
X159004000Y-107543600D01*
X160020000Y-105511600D02*
X160020000Y-107543600D01*
X161036000Y-105511600D02*
X159004000Y-105511600D01*
X135822600Y-108432600D02*
G75*
G03X135822600Y-108432600I-800000J0D01*
G01*
X131445000Y-106950000D02*
X151145000Y-106950000D01*
X151145000Y-106950000D02*
X151145000Y-122950000D01*
X131445000Y-122950000D02*
X151145000Y-122950000D01*
X131445000Y-106950000D02*
X131445000Y-122950000D01*
X164187143Y-117006666D02*
X164234762Y-117054285D01*
X164282381Y-117197142D01*
X164282381Y-117292380D01*
X164234762Y-117435238D01*
X164139524Y-117530476D01*
X164044286Y-117578095D01*
X163853810Y-117625714D01*
X163710952Y-117625714D01*
X163520476Y-117578095D01*
X163425238Y-117530476D01*
X163330000Y-117435238D01*
X163282381Y-117292380D01*
X163282381Y-117197142D01*
X163330000Y-117054285D01*
X163377619Y-117006666D01*
X163377619Y-116625714D02*
X163330000Y-116578095D01*
X163282381Y-116482857D01*
X163282381Y-116244761D01*
X163330000Y-116149523D01*
X163377619Y-116101904D01*
X163472857Y-116054285D01*
X163568095Y-116054285D01*
X163710952Y-116101904D01*
X164282381Y-116673333D01*
X164282381Y-116054285D01*
X164187143Y-106846666D02*
X164234762Y-106894285D01*
X164282381Y-107037142D01*
X164282381Y-107132380D01*
X164234762Y-107275238D01*
X164139524Y-107370476D01*
X164044286Y-107418095D01*
X163853810Y-107465714D01*
X163710952Y-107465714D01*
X163520476Y-107418095D01*
X163425238Y-107370476D01*
X163330000Y-107275238D01*
X163282381Y-107132380D01*
X163282381Y-107037142D01*
X163330000Y-106894285D01*
X163377619Y-106846666D01*
X164282381Y-105894285D02*
X164282381Y-106465714D01*
X164282381Y-106180000D02*
X163282381Y-106180000D01*
X163425238Y-106275238D01*
X163520476Y-106370476D01*
X163568095Y-106465714D01*
X147153334Y-122372381D02*
X146820000Y-121896190D01*
X146581905Y-122372381D02*
X146581905Y-121372381D01*
X146962858Y-121372381D01*
X147058096Y-121420000D01*
X147105715Y-121467619D01*
X147153334Y-121562857D01*
X147153334Y-121705714D01*
X147105715Y-121800952D01*
X147058096Y-121848571D01*
X146962858Y-121896190D01*
X146581905Y-121896190D01*
X148105715Y-122372381D02*
X147534286Y-122372381D01*
X147820000Y-122372381D02*
X147820000Y-121372381D01*
X147724762Y-121515238D01*
X147629524Y-121610476D01*
X147534286Y-121658095D01*
M02*
