G04 #@! TF.FileFunction,Copper,L2,Bot,Signal*
%FSLAX46Y46*%
G04 Gerber Fmt 4.6, Leading zero omitted, Abs format (unit mm)*
G04 Created by KiCad (PCBNEW 4.0.2-1.fc23-product) date Sun May  8 18:35:26 2016*
%MOMM*%
G01*
G04 APERTURE LIST*
%ADD10C,0.100000*%
%ADD11C,2.000000*%
%ADD12C,0.685800*%
%ADD13C,0.254000*%
G04 APERTURE END LIST*
D10*
D11*
X151130000Y-102870000D03*
X148590000Y-102870000D03*
X146050000Y-102870000D03*
X143510000Y-102870000D03*
X140970000Y-102870000D03*
X138430000Y-102870000D03*
X135890000Y-102870000D03*
X135890000Y-125730000D03*
X138430000Y-125730000D03*
X140970000Y-125730000D03*
X143510000Y-125730000D03*
X146050000Y-125730000D03*
X148590000Y-125730000D03*
X151130000Y-125730000D03*
D12*
X156210000Y-123190000D03*
X156210000Y-118110000D03*
X156210000Y-107950000D03*
X156210000Y-109220000D03*
D13*
G36*
X157353000Y-127560000D02*
X129609931Y-127560000D01*
X128845011Y-127407848D01*
X128255830Y-127014170D01*
X127862152Y-126424989D01*
X127788317Y-126053795D01*
X134254716Y-126053795D01*
X134503106Y-126654943D01*
X134962637Y-127115278D01*
X135563352Y-127364716D01*
X136213795Y-127365284D01*
X136814943Y-127116894D01*
X137160199Y-126772241D01*
X137502637Y-127115278D01*
X138103352Y-127364716D01*
X138753795Y-127365284D01*
X139354943Y-127116894D01*
X139700199Y-126772241D01*
X140042637Y-127115278D01*
X140643352Y-127364716D01*
X141293795Y-127365284D01*
X141894943Y-127116894D01*
X142240199Y-126772241D01*
X142582637Y-127115278D01*
X143183352Y-127364716D01*
X143833795Y-127365284D01*
X144434943Y-127116894D01*
X144780199Y-126772241D01*
X145122637Y-127115278D01*
X145723352Y-127364716D01*
X146373795Y-127365284D01*
X146974943Y-127116894D01*
X147320199Y-126772241D01*
X147662637Y-127115278D01*
X148263352Y-127364716D01*
X148913795Y-127365284D01*
X149514943Y-127116894D01*
X149860199Y-126772241D01*
X150202637Y-127115278D01*
X150803352Y-127364716D01*
X151453795Y-127365284D01*
X152054943Y-127116894D01*
X152515278Y-126657363D01*
X152764716Y-126056648D01*
X152765284Y-125406205D01*
X152516894Y-124805057D01*
X152057363Y-124344722D01*
X151456648Y-124095284D01*
X150806205Y-124094716D01*
X150205057Y-124343106D01*
X149859801Y-124687759D01*
X149517363Y-124344722D01*
X148916648Y-124095284D01*
X148266205Y-124094716D01*
X147665057Y-124343106D01*
X147319801Y-124687759D01*
X146977363Y-124344722D01*
X146376648Y-124095284D01*
X145726205Y-124094716D01*
X145125057Y-124343106D01*
X144779801Y-124687759D01*
X144437363Y-124344722D01*
X143836648Y-124095284D01*
X143186205Y-124094716D01*
X142585057Y-124343106D01*
X142239801Y-124687759D01*
X141897363Y-124344722D01*
X141296648Y-124095284D01*
X140646205Y-124094716D01*
X140045057Y-124343106D01*
X139699801Y-124687759D01*
X139357363Y-124344722D01*
X138756648Y-124095284D01*
X138106205Y-124094716D01*
X137505057Y-124343106D01*
X137159801Y-124687759D01*
X136817363Y-124344722D01*
X136216648Y-124095284D01*
X135566205Y-124094716D01*
X134965057Y-124343106D01*
X134504722Y-124802637D01*
X134255284Y-125403352D01*
X134254716Y-126053795D01*
X127788317Y-126053795D01*
X127710000Y-125660069D01*
X127710000Y-103193795D01*
X134254716Y-103193795D01*
X134503106Y-103794943D01*
X134962637Y-104255278D01*
X135563352Y-104504716D01*
X136213795Y-104505284D01*
X136814943Y-104256894D01*
X137160199Y-103912241D01*
X137502637Y-104255278D01*
X138103352Y-104504716D01*
X138753795Y-104505284D01*
X139354943Y-104256894D01*
X139700199Y-103912241D01*
X140042637Y-104255278D01*
X140643352Y-104504716D01*
X141293795Y-104505284D01*
X141894943Y-104256894D01*
X142240199Y-103912241D01*
X142582637Y-104255278D01*
X143183352Y-104504716D01*
X143833795Y-104505284D01*
X144434943Y-104256894D01*
X144780199Y-103912241D01*
X145122637Y-104255278D01*
X145723352Y-104504716D01*
X146373795Y-104505284D01*
X146974943Y-104256894D01*
X147209715Y-104022532D01*
X147617073Y-104022532D01*
X147715736Y-104289387D01*
X148325461Y-104515908D01*
X148975460Y-104491856D01*
X149464264Y-104289387D01*
X149562927Y-104022532D01*
X148590000Y-103049605D01*
X147617073Y-104022532D01*
X147209715Y-104022532D01*
X147402562Y-103830022D01*
X147437468Y-103842927D01*
X148410395Y-102870000D01*
X148769605Y-102870000D01*
X149742532Y-103842927D01*
X149777938Y-103829836D01*
X150202637Y-104255278D01*
X150803352Y-104504716D01*
X151453795Y-104505284D01*
X152054943Y-104256894D01*
X152515278Y-103797363D01*
X152764716Y-103196648D01*
X152765284Y-102546205D01*
X152516894Y-101945057D01*
X152057363Y-101484722D01*
X151456648Y-101235284D01*
X150806205Y-101234716D01*
X150205057Y-101483106D01*
X149777438Y-101909978D01*
X149742532Y-101897073D01*
X148769605Y-102870000D01*
X148410395Y-102870000D01*
X147437468Y-101897073D01*
X147402062Y-101910164D01*
X147209703Y-101717468D01*
X147617073Y-101717468D01*
X148590000Y-102690395D01*
X149562927Y-101717468D01*
X149464264Y-101450613D01*
X148854539Y-101224092D01*
X148204540Y-101248144D01*
X147715736Y-101450613D01*
X147617073Y-101717468D01*
X147209703Y-101717468D01*
X146977363Y-101484722D01*
X146376648Y-101235284D01*
X145726205Y-101234716D01*
X145125057Y-101483106D01*
X144779801Y-101827759D01*
X144437363Y-101484722D01*
X143836648Y-101235284D01*
X143186205Y-101234716D01*
X142585057Y-101483106D01*
X142239801Y-101827759D01*
X141897363Y-101484722D01*
X141296648Y-101235284D01*
X140646205Y-101234716D01*
X140045057Y-101483106D01*
X139699801Y-101827759D01*
X139357363Y-101484722D01*
X138756648Y-101235284D01*
X138106205Y-101234716D01*
X137505057Y-101483106D01*
X137159801Y-101827759D01*
X136817363Y-101484722D01*
X136216648Y-101235284D01*
X135566205Y-101234716D01*
X134965057Y-101483106D01*
X134504722Y-101942637D01*
X134255284Y-102543352D01*
X134254716Y-103193795D01*
X127710000Y-103193795D01*
X127710000Y-102939931D01*
X127862152Y-102175011D01*
X128255830Y-101585830D01*
X128845011Y-101192152D01*
X129609931Y-101040000D01*
X157353000Y-101040000D01*
X157353000Y-127560000D01*
X157353000Y-127560000D01*
G37*
X157353000Y-127560000D02*
X129609931Y-127560000D01*
X128845011Y-127407848D01*
X128255830Y-127014170D01*
X127862152Y-126424989D01*
X127788317Y-126053795D01*
X134254716Y-126053795D01*
X134503106Y-126654943D01*
X134962637Y-127115278D01*
X135563352Y-127364716D01*
X136213795Y-127365284D01*
X136814943Y-127116894D01*
X137160199Y-126772241D01*
X137502637Y-127115278D01*
X138103352Y-127364716D01*
X138753795Y-127365284D01*
X139354943Y-127116894D01*
X139700199Y-126772241D01*
X140042637Y-127115278D01*
X140643352Y-127364716D01*
X141293795Y-127365284D01*
X141894943Y-127116894D01*
X142240199Y-126772241D01*
X142582637Y-127115278D01*
X143183352Y-127364716D01*
X143833795Y-127365284D01*
X144434943Y-127116894D01*
X144780199Y-126772241D01*
X145122637Y-127115278D01*
X145723352Y-127364716D01*
X146373795Y-127365284D01*
X146974943Y-127116894D01*
X147320199Y-126772241D01*
X147662637Y-127115278D01*
X148263352Y-127364716D01*
X148913795Y-127365284D01*
X149514943Y-127116894D01*
X149860199Y-126772241D01*
X150202637Y-127115278D01*
X150803352Y-127364716D01*
X151453795Y-127365284D01*
X152054943Y-127116894D01*
X152515278Y-126657363D01*
X152764716Y-126056648D01*
X152765284Y-125406205D01*
X152516894Y-124805057D01*
X152057363Y-124344722D01*
X151456648Y-124095284D01*
X150806205Y-124094716D01*
X150205057Y-124343106D01*
X149859801Y-124687759D01*
X149517363Y-124344722D01*
X148916648Y-124095284D01*
X148266205Y-124094716D01*
X147665057Y-124343106D01*
X147319801Y-124687759D01*
X146977363Y-124344722D01*
X146376648Y-124095284D01*
X145726205Y-124094716D01*
X145125057Y-124343106D01*
X144779801Y-124687759D01*
X144437363Y-124344722D01*
X143836648Y-124095284D01*
X143186205Y-124094716D01*
X142585057Y-124343106D01*
X142239801Y-124687759D01*
X141897363Y-124344722D01*
X141296648Y-124095284D01*
X140646205Y-124094716D01*
X140045057Y-124343106D01*
X139699801Y-124687759D01*
X139357363Y-124344722D01*
X138756648Y-124095284D01*
X138106205Y-124094716D01*
X137505057Y-124343106D01*
X137159801Y-124687759D01*
X136817363Y-124344722D01*
X136216648Y-124095284D01*
X135566205Y-124094716D01*
X134965057Y-124343106D01*
X134504722Y-124802637D01*
X134255284Y-125403352D01*
X134254716Y-126053795D01*
X127788317Y-126053795D01*
X127710000Y-125660069D01*
X127710000Y-103193795D01*
X134254716Y-103193795D01*
X134503106Y-103794943D01*
X134962637Y-104255278D01*
X135563352Y-104504716D01*
X136213795Y-104505284D01*
X136814943Y-104256894D01*
X137160199Y-103912241D01*
X137502637Y-104255278D01*
X138103352Y-104504716D01*
X138753795Y-104505284D01*
X139354943Y-104256894D01*
X139700199Y-103912241D01*
X140042637Y-104255278D01*
X140643352Y-104504716D01*
X141293795Y-104505284D01*
X141894943Y-104256894D01*
X142240199Y-103912241D01*
X142582637Y-104255278D01*
X143183352Y-104504716D01*
X143833795Y-104505284D01*
X144434943Y-104256894D01*
X144780199Y-103912241D01*
X145122637Y-104255278D01*
X145723352Y-104504716D01*
X146373795Y-104505284D01*
X146974943Y-104256894D01*
X147209715Y-104022532D01*
X147617073Y-104022532D01*
X147715736Y-104289387D01*
X148325461Y-104515908D01*
X148975460Y-104491856D01*
X149464264Y-104289387D01*
X149562927Y-104022532D01*
X148590000Y-103049605D01*
X147617073Y-104022532D01*
X147209715Y-104022532D01*
X147402562Y-103830022D01*
X147437468Y-103842927D01*
X148410395Y-102870000D01*
X148769605Y-102870000D01*
X149742532Y-103842927D01*
X149777938Y-103829836D01*
X150202637Y-104255278D01*
X150803352Y-104504716D01*
X151453795Y-104505284D01*
X152054943Y-104256894D01*
X152515278Y-103797363D01*
X152764716Y-103196648D01*
X152765284Y-102546205D01*
X152516894Y-101945057D01*
X152057363Y-101484722D01*
X151456648Y-101235284D01*
X150806205Y-101234716D01*
X150205057Y-101483106D01*
X149777438Y-101909978D01*
X149742532Y-101897073D01*
X148769605Y-102870000D01*
X148410395Y-102870000D01*
X147437468Y-101897073D01*
X147402062Y-101910164D01*
X147209703Y-101717468D01*
X147617073Y-101717468D01*
X148590000Y-102690395D01*
X149562927Y-101717468D01*
X149464264Y-101450613D01*
X148854539Y-101224092D01*
X148204540Y-101248144D01*
X147715736Y-101450613D01*
X147617073Y-101717468D01*
X147209703Y-101717468D01*
X146977363Y-101484722D01*
X146376648Y-101235284D01*
X145726205Y-101234716D01*
X145125057Y-101483106D01*
X144779801Y-101827759D01*
X144437363Y-101484722D01*
X143836648Y-101235284D01*
X143186205Y-101234716D01*
X142585057Y-101483106D01*
X142239801Y-101827759D01*
X141897363Y-101484722D01*
X141296648Y-101235284D01*
X140646205Y-101234716D01*
X140045057Y-101483106D01*
X139699801Y-101827759D01*
X139357363Y-101484722D01*
X138756648Y-101235284D01*
X138106205Y-101234716D01*
X137505057Y-101483106D01*
X137159801Y-101827759D01*
X136817363Y-101484722D01*
X136216648Y-101235284D01*
X135566205Y-101234716D01*
X134965057Y-101483106D01*
X134504722Y-101942637D01*
X134255284Y-102543352D01*
X134254716Y-103193795D01*
X127710000Y-103193795D01*
X127710000Y-102939931D01*
X127862152Y-102175011D01*
X128255830Y-101585830D01*
X128845011Y-101192152D01*
X129609931Y-101040000D01*
X157353000Y-101040000D01*
X157353000Y-127560000D01*
M02*
