G04 #@! TF.FileFunction,Legend,Top*
%FSLAX46Y46*%
G04 Gerber Fmt 4.6, Leading zero omitted, Abs format (unit mm)*
G04 Created by KiCad (PCBNEW 4.0.2-1.fc23-product) date Sun May  8 18:35:26 2016*
%MOMM*%
G01*
G04 APERTURE LIST*
%ADD10C,0.100000*%
%ADD11C,0.127000*%
%ADD12C,0.300000*%
%ADD13C,0.150000*%
G04 APERTURE END LIST*
D10*
D11*
X135152190Y-105639810D02*
X134982857Y-105397905D01*
X134861904Y-105639810D02*
X134861904Y-105131810D01*
X135055428Y-105131810D01*
X135103809Y-105156000D01*
X135128000Y-105180190D01*
X135152190Y-105228571D01*
X135152190Y-105301143D01*
X135128000Y-105349524D01*
X135103809Y-105373714D01*
X135055428Y-105397905D01*
X134861904Y-105397905D01*
X135369904Y-105373714D02*
X135539238Y-105373714D01*
X135611809Y-105639810D02*
X135369904Y-105639810D01*
X135369904Y-105131810D01*
X135611809Y-105131810D01*
X135805333Y-105615619D02*
X135877904Y-105639810D01*
X135998857Y-105639810D01*
X136047238Y-105615619D01*
X136071428Y-105591429D01*
X136095619Y-105543048D01*
X136095619Y-105494667D01*
X136071428Y-105446286D01*
X136047238Y-105422095D01*
X135998857Y-105397905D01*
X135902095Y-105373714D01*
X135853714Y-105349524D01*
X135829523Y-105325333D01*
X135805333Y-105276952D01*
X135805333Y-105228571D01*
X135829523Y-105180190D01*
X135853714Y-105156000D01*
X135902095Y-105131810D01*
X136023047Y-105131810D01*
X136095619Y-105156000D01*
X136313333Y-105373714D02*
X136482667Y-105373714D01*
X136555238Y-105639810D02*
X136313333Y-105639810D01*
X136313333Y-105131810D01*
X136555238Y-105131810D01*
X136700381Y-105131810D02*
X136990667Y-105131810D01*
X136845524Y-105639810D02*
X136845524Y-105131810D01*
X145421047Y-105639810D02*
X145421047Y-105131810D01*
X145711333Y-105639810D01*
X145711333Y-105131810D01*
X145929047Y-105615619D02*
X146001618Y-105639810D01*
X146122571Y-105639810D01*
X146170952Y-105615619D01*
X146195142Y-105591429D01*
X146219333Y-105543048D01*
X146219333Y-105494667D01*
X146195142Y-105446286D01*
X146170952Y-105422095D01*
X146122571Y-105397905D01*
X146025809Y-105373714D01*
X145977428Y-105349524D01*
X145953237Y-105325333D01*
X145929047Y-105276952D01*
X145929047Y-105228571D01*
X145953237Y-105180190D01*
X145977428Y-105156000D01*
X146025809Y-105131810D01*
X146146761Y-105131810D01*
X146219333Y-105156000D01*
X146412857Y-105615619D02*
X146485428Y-105639810D01*
X146606381Y-105639810D01*
X146654762Y-105615619D01*
X146678952Y-105591429D01*
X146703143Y-105543048D01*
X146703143Y-105494667D01*
X146678952Y-105446286D01*
X146654762Y-105422095D01*
X146606381Y-105397905D01*
X146509619Y-105373714D01*
X146461238Y-105349524D01*
X146437047Y-105325333D01*
X146412857Y-105276952D01*
X146412857Y-105228571D01*
X146437047Y-105180190D01*
X146461238Y-105156000D01*
X146509619Y-105131810D01*
X146630571Y-105131810D01*
X146703143Y-105156000D01*
X142711714Y-105639810D02*
X142711714Y-105131810D01*
X142881048Y-105494667D01*
X143050381Y-105131810D01*
X143050381Y-105639810D01*
X143389047Y-105131810D02*
X143485809Y-105131810D01*
X143534190Y-105156000D01*
X143582571Y-105204381D01*
X143606762Y-105301143D01*
X143606762Y-105470476D01*
X143582571Y-105567238D01*
X143534190Y-105615619D01*
X143485809Y-105639810D01*
X143389047Y-105639810D01*
X143340666Y-105615619D01*
X143292285Y-105567238D01*
X143268095Y-105470476D01*
X143268095Y-105301143D01*
X143292285Y-105204381D01*
X143340666Y-105156000D01*
X143389047Y-105131810D01*
X143800285Y-105615619D02*
X143872856Y-105639810D01*
X143993809Y-105639810D01*
X144042190Y-105615619D01*
X144066380Y-105591429D01*
X144090571Y-105543048D01*
X144090571Y-105494667D01*
X144066380Y-105446286D01*
X144042190Y-105422095D01*
X143993809Y-105397905D01*
X143897047Y-105373714D01*
X143848666Y-105349524D01*
X143824475Y-105325333D01*
X143800285Y-105276952D01*
X143800285Y-105228571D01*
X143824475Y-105180190D01*
X143848666Y-105156000D01*
X143897047Y-105131810D01*
X144017999Y-105131810D01*
X144090571Y-105156000D01*
X144308285Y-105639810D02*
X144308285Y-105131810D01*
X140171714Y-105639810D02*
X140171714Y-105131810D01*
X140341048Y-105494667D01*
X140510381Y-105131810D01*
X140510381Y-105639810D01*
X140752285Y-105639810D02*
X140752285Y-105131810D01*
X140970000Y-105615619D02*
X141042571Y-105639810D01*
X141163524Y-105639810D01*
X141211905Y-105615619D01*
X141236095Y-105591429D01*
X141260286Y-105543048D01*
X141260286Y-105494667D01*
X141236095Y-105446286D01*
X141211905Y-105422095D01*
X141163524Y-105397905D01*
X141066762Y-105373714D01*
X141018381Y-105349524D01*
X140994190Y-105325333D01*
X140970000Y-105276952D01*
X140970000Y-105228571D01*
X140994190Y-105180190D01*
X141018381Y-105156000D01*
X141066762Y-105131810D01*
X141187714Y-105131810D01*
X141260286Y-105156000D01*
X141574762Y-105131810D02*
X141671524Y-105131810D01*
X141719905Y-105156000D01*
X141768286Y-105204381D01*
X141792477Y-105301143D01*
X141792477Y-105470476D01*
X141768286Y-105567238D01*
X141719905Y-105615619D01*
X141671524Y-105639810D01*
X141574762Y-105639810D01*
X141526381Y-105615619D01*
X141478000Y-105567238D01*
X141453810Y-105470476D01*
X141453810Y-105301143D01*
X141478000Y-105204381D01*
X141526381Y-105156000D01*
X141574762Y-105131810D01*
X137776857Y-105615619D02*
X137849428Y-105639810D01*
X137970381Y-105639810D01*
X138018762Y-105615619D01*
X138042952Y-105591429D01*
X138067143Y-105543048D01*
X138067143Y-105494667D01*
X138042952Y-105446286D01*
X138018762Y-105422095D01*
X137970381Y-105397905D01*
X137873619Y-105373714D01*
X137825238Y-105349524D01*
X137801047Y-105325333D01*
X137776857Y-105276952D01*
X137776857Y-105228571D01*
X137801047Y-105180190D01*
X137825238Y-105156000D01*
X137873619Y-105131810D01*
X137994571Y-105131810D01*
X138067143Y-105156000D01*
X138575143Y-105591429D02*
X138550953Y-105615619D01*
X138478381Y-105639810D01*
X138430000Y-105639810D01*
X138357429Y-105615619D01*
X138309048Y-105567238D01*
X138284857Y-105518857D01*
X138260667Y-105422095D01*
X138260667Y-105349524D01*
X138284857Y-105252762D01*
X138309048Y-105204381D01*
X138357429Y-105156000D01*
X138430000Y-105131810D01*
X138478381Y-105131810D01*
X138550953Y-105156000D01*
X138575143Y-105180190D01*
X138792857Y-105639810D02*
X138792857Y-105131810D01*
X139083143Y-105639810D02*
X138865429Y-105349524D01*
X139083143Y-105131810D02*
X138792857Y-105422095D01*
X148202953Y-105156000D02*
X148154572Y-105131810D01*
X148082000Y-105131810D01*
X148009429Y-105156000D01*
X147961048Y-105204381D01*
X147936857Y-105252762D01*
X147912667Y-105349524D01*
X147912667Y-105422095D01*
X147936857Y-105518857D01*
X147961048Y-105567238D01*
X148009429Y-105615619D01*
X148082000Y-105639810D01*
X148130381Y-105639810D01*
X148202953Y-105615619D01*
X148227143Y-105591429D01*
X148227143Y-105422095D01*
X148130381Y-105422095D01*
X148444857Y-105639810D02*
X148444857Y-105131810D01*
X148735143Y-105639810D01*
X148735143Y-105131810D01*
X148977047Y-105639810D02*
X148977047Y-105131810D01*
X149098000Y-105131810D01*
X149170571Y-105156000D01*
X149218952Y-105204381D01*
X149243143Y-105252762D01*
X149267333Y-105349524D01*
X149267333Y-105422095D01*
X149243143Y-105518857D01*
X149218952Y-105567238D01*
X149170571Y-105615619D01*
X149098000Y-105639810D01*
X148977047Y-105639810D01*
X135261047Y-123546810D02*
X135575524Y-123546810D01*
X135406190Y-123740333D01*
X135478762Y-123740333D01*
X135527143Y-123764524D01*
X135551333Y-123788714D01*
X135575524Y-123837095D01*
X135575524Y-123958048D01*
X135551333Y-124006429D01*
X135527143Y-124030619D01*
X135478762Y-124054810D01*
X135333619Y-124054810D01*
X135285238Y-124030619D01*
X135261047Y-124006429D01*
X135720667Y-123546810D02*
X135890000Y-124054810D01*
X136059334Y-123546810D01*
X136180286Y-123546810D02*
X136494763Y-123546810D01*
X136325429Y-123740333D01*
X136398001Y-123740333D01*
X136446382Y-123764524D01*
X136470572Y-123788714D01*
X136494763Y-123837095D01*
X136494763Y-123958048D01*
X136470572Y-124006429D01*
X136446382Y-124030619D01*
X136398001Y-124054810D01*
X136252858Y-124054810D01*
X136204477Y-124030619D01*
X136180286Y-124006429D01*
X137668000Y-124054810D02*
X137668000Y-123546810D01*
X137788953Y-123546810D01*
X137861524Y-123571000D01*
X137909905Y-123619381D01*
X137934096Y-123667762D01*
X137958286Y-123764524D01*
X137958286Y-123837095D01*
X137934096Y-123933857D01*
X137909905Y-123982238D01*
X137861524Y-124030619D01*
X137788953Y-124054810D01*
X137668000Y-124054810D01*
X138176000Y-124054810D02*
X138176000Y-123546810D01*
X138514667Y-123546810D02*
X138611429Y-123546810D01*
X138659810Y-123571000D01*
X138708191Y-123619381D01*
X138732382Y-123716143D01*
X138732382Y-123885476D01*
X138708191Y-123982238D01*
X138659810Y-124030619D01*
X138611429Y-124054810D01*
X138514667Y-124054810D01*
X138466286Y-124030619D01*
X138417905Y-123982238D01*
X138393715Y-123885476D01*
X138393715Y-123716143D01*
X138417905Y-123619381D01*
X138466286Y-123571000D01*
X138514667Y-123546810D01*
X139192000Y-123546810D02*
X138950095Y-123546810D01*
X138925905Y-123788714D01*
X138950095Y-123764524D01*
X138998476Y-123740333D01*
X139119429Y-123740333D01*
X139167810Y-123764524D01*
X139192000Y-123788714D01*
X139216191Y-123837095D01*
X139216191Y-123958048D01*
X139192000Y-124006429D01*
X139167810Y-124030619D01*
X139119429Y-124054810D01*
X138998476Y-124054810D01*
X138950095Y-124030619D01*
X138925905Y-124006429D01*
X140208000Y-124054810D02*
X140208000Y-123546810D01*
X140328953Y-123546810D01*
X140401524Y-123571000D01*
X140449905Y-123619381D01*
X140474096Y-123667762D01*
X140498286Y-123764524D01*
X140498286Y-123837095D01*
X140474096Y-123933857D01*
X140449905Y-123982238D01*
X140401524Y-124030619D01*
X140328953Y-124054810D01*
X140208000Y-124054810D01*
X140716000Y-124054810D02*
X140716000Y-123546810D01*
X141054667Y-123546810D02*
X141151429Y-123546810D01*
X141199810Y-123571000D01*
X141248191Y-123619381D01*
X141272382Y-123716143D01*
X141272382Y-123885476D01*
X141248191Y-123982238D01*
X141199810Y-124030619D01*
X141151429Y-124054810D01*
X141054667Y-124054810D01*
X141006286Y-124030619D01*
X140957905Y-123982238D01*
X140933715Y-123885476D01*
X140933715Y-123716143D01*
X140957905Y-123619381D01*
X141006286Y-123571000D01*
X141054667Y-123546810D01*
X141707810Y-123716143D02*
X141707810Y-124054810D01*
X141586857Y-123522619D02*
X141465905Y-123885476D01*
X141780381Y-123885476D01*
X142748000Y-124054810D02*
X142748000Y-123546810D01*
X142868953Y-123546810D01*
X142941524Y-123571000D01*
X142989905Y-123619381D01*
X143014096Y-123667762D01*
X143038286Y-123764524D01*
X143038286Y-123837095D01*
X143014096Y-123933857D01*
X142989905Y-123982238D01*
X142941524Y-124030619D01*
X142868953Y-124054810D01*
X142748000Y-124054810D01*
X143256000Y-124054810D02*
X143256000Y-123546810D01*
X143594667Y-123546810D02*
X143691429Y-123546810D01*
X143739810Y-123571000D01*
X143788191Y-123619381D01*
X143812382Y-123716143D01*
X143812382Y-123885476D01*
X143788191Y-123982238D01*
X143739810Y-124030619D01*
X143691429Y-124054810D01*
X143594667Y-124054810D01*
X143546286Y-124030619D01*
X143497905Y-123982238D01*
X143473715Y-123885476D01*
X143473715Y-123716143D01*
X143497905Y-123619381D01*
X143546286Y-123571000D01*
X143594667Y-123546810D01*
X143981714Y-123546810D02*
X144296191Y-123546810D01*
X144126857Y-123740333D01*
X144199429Y-123740333D01*
X144247810Y-123764524D01*
X144272000Y-123788714D01*
X144296191Y-123837095D01*
X144296191Y-123958048D01*
X144272000Y-124006429D01*
X144247810Y-124030619D01*
X144199429Y-124054810D01*
X144054286Y-124054810D01*
X144005905Y-124030619D01*
X143981714Y-124006429D01*
X145288000Y-124054810D02*
X145288000Y-123546810D01*
X145408953Y-123546810D01*
X145481524Y-123571000D01*
X145529905Y-123619381D01*
X145554096Y-123667762D01*
X145578286Y-123764524D01*
X145578286Y-123837095D01*
X145554096Y-123933857D01*
X145529905Y-123982238D01*
X145481524Y-124030619D01*
X145408953Y-124054810D01*
X145288000Y-124054810D01*
X145796000Y-124054810D02*
X145796000Y-123546810D01*
X146134667Y-123546810D02*
X146231429Y-123546810D01*
X146279810Y-123571000D01*
X146328191Y-123619381D01*
X146352382Y-123716143D01*
X146352382Y-123885476D01*
X146328191Y-123982238D01*
X146279810Y-124030619D01*
X146231429Y-124054810D01*
X146134667Y-124054810D01*
X146086286Y-124030619D01*
X146037905Y-123982238D01*
X146013715Y-123885476D01*
X146013715Y-123716143D01*
X146037905Y-123619381D01*
X146086286Y-123571000D01*
X146134667Y-123546810D01*
X146545905Y-123595190D02*
X146570095Y-123571000D01*
X146618476Y-123546810D01*
X146739429Y-123546810D01*
X146787810Y-123571000D01*
X146812000Y-123595190D01*
X146836191Y-123643571D01*
X146836191Y-123691952D01*
X146812000Y-123764524D01*
X146521714Y-124054810D01*
X146836191Y-124054810D01*
X147828000Y-124054810D02*
X147828000Y-123546810D01*
X147948953Y-123546810D01*
X148021524Y-123571000D01*
X148069905Y-123619381D01*
X148094096Y-123667762D01*
X148118286Y-123764524D01*
X148118286Y-123837095D01*
X148094096Y-123933857D01*
X148069905Y-123982238D01*
X148021524Y-124030619D01*
X147948953Y-124054810D01*
X147828000Y-124054810D01*
X148336000Y-124054810D02*
X148336000Y-123546810D01*
X148674667Y-123546810D02*
X148771429Y-123546810D01*
X148819810Y-123571000D01*
X148868191Y-123619381D01*
X148892382Y-123716143D01*
X148892382Y-123885476D01*
X148868191Y-123982238D01*
X148819810Y-124030619D01*
X148771429Y-124054810D01*
X148674667Y-124054810D01*
X148626286Y-124030619D01*
X148577905Y-123982238D01*
X148553715Y-123885476D01*
X148553715Y-123716143D01*
X148577905Y-123619381D01*
X148626286Y-123571000D01*
X148674667Y-123546810D01*
X149376191Y-124054810D02*
X149085905Y-124054810D01*
X149231048Y-124054810D02*
X149231048Y-123546810D01*
X149182667Y-123619381D01*
X149134286Y-123667762D01*
X149085905Y-123691952D01*
X150368000Y-124054810D02*
X150368000Y-123546810D01*
X150488953Y-123546810D01*
X150561524Y-123571000D01*
X150609905Y-123619381D01*
X150634096Y-123667762D01*
X150658286Y-123764524D01*
X150658286Y-123837095D01*
X150634096Y-123933857D01*
X150609905Y-123982238D01*
X150561524Y-124030619D01*
X150488953Y-124054810D01*
X150368000Y-124054810D01*
X150876000Y-124054810D02*
X150876000Y-123546810D01*
X151214667Y-123546810D02*
X151311429Y-123546810D01*
X151359810Y-123571000D01*
X151408191Y-123619381D01*
X151432382Y-123716143D01*
X151432382Y-123885476D01*
X151408191Y-123982238D01*
X151359810Y-124030619D01*
X151311429Y-124054810D01*
X151214667Y-124054810D01*
X151166286Y-124030619D01*
X151117905Y-123982238D01*
X151093715Y-123885476D01*
X151093715Y-123716143D01*
X151117905Y-123619381D01*
X151166286Y-123571000D01*
X151214667Y-123546810D01*
X151746857Y-123546810D02*
X151795238Y-123546810D01*
X151843619Y-123571000D01*
X151867810Y-123595190D01*
X151892000Y-123643571D01*
X151916191Y-123740333D01*
X151916191Y-123861286D01*
X151892000Y-123958048D01*
X151867810Y-124006429D01*
X151843619Y-124030619D01*
X151795238Y-124054810D01*
X151746857Y-124054810D01*
X151698476Y-124030619D01*
X151674286Y-124006429D01*
X151650095Y-123958048D01*
X151625905Y-123861286D01*
X151625905Y-123740333D01*
X151650095Y-123643571D01*
X151674286Y-123595190D01*
X151698476Y-123571000D01*
X151746857Y-123546810D01*
D12*
X168755715Y-113978571D02*
X168755715Y-114978571D01*
X168398572Y-113407143D02*
X168041429Y-114478571D01*
X168970001Y-114478571D01*
X169398572Y-113478571D02*
X170327143Y-113478571D01*
X169827143Y-114050000D01*
X170041429Y-114050000D01*
X170184286Y-114121429D01*
X170255715Y-114192857D01*
X170327143Y-114335714D01*
X170327143Y-114692857D01*
X170255715Y-114835714D01*
X170184286Y-114907143D01*
X170041429Y-114978571D01*
X169612857Y-114978571D01*
X169470000Y-114907143D01*
X169398572Y-114835714D01*
X171612857Y-113978571D02*
X171612857Y-114978571D01*
X171255714Y-113407143D02*
X170898571Y-114478571D01*
X171827143Y-114478571D01*
X173541428Y-114978571D02*
X173541428Y-113478571D01*
X174041428Y-114550000D01*
X174541428Y-113478571D01*
X174541428Y-114978571D01*
X175255714Y-114978571D02*
X175255714Y-113478571D01*
X175255714Y-114192857D02*
X176112857Y-114192857D01*
X176112857Y-114978571D02*
X176112857Y-113478571D01*
X176684286Y-113978571D02*
X177470000Y-113978571D01*
X176684286Y-114978571D01*
X177470000Y-114978571D01*
D13*
X136457600Y-108432600D02*
G75*
G03X136457600Y-108432600I-800000J0D01*
G01*
X132080000Y-106950000D02*
X151780000Y-106950000D01*
X151780000Y-106950000D02*
X151780000Y-122950000D01*
X132080000Y-122950000D02*
X151780000Y-122950000D01*
X132080000Y-106950000D02*
X132080000Y-122950000D01*
X147788334Y-122372381D02*
X147455000Y-121896190D01*
X147216905Y-122372381D02*
X147216905Y-121372381D01*
X147597858Y-121372381D01*
X147693096Y-121420000D01*
X147740715Y-121467619D01*
X147788334Y-121562857D01*
X147788334Y-121705714D01*
X147740715Y-121800952D01*
X147693096Y-121848571D01*
X147597858Y-121896190D01*
X147216905Y-121896190D01*
X148740715Y-122372381D02*
X148169286Y-122372381D01*
X148455000Y-122372381D02*
X148455000Y-121372381D01*
X148359762Y-121515238D01*
X148264524Y-121610476D01*
X148169286Y-121658095D01*
X162917143Y-105576666D02*
X162964762Y-105624285D01*
X163012381Y-105767142D01*
X163012381Y-105862380D01*
X162964762Y-106005238D01*
X162869524Y-106100476D01*
X162774286Y-106148095D01*
X162583810Y-106195714D01*
X162440952Y-106195714D01*
X162250476Y-106148095D01*
X162155238Y-106100476D01*
X162060000Y-106005238D01*
X162012381Y-105862380D01*
X162012381Y-105767142D01*
X162060000Y-105624285D01*
X162107619Y-105576666D01*
X163012381Y-104624285D02*
X163012381Y-105195714D01*
X163012381Y-104910000D02*
X162012381Y-104910000D01*
X162155238Y-105005238D01*
X162250476Y-105100476D01*
X162298095Y-105195714D01*
X162917143Y-119546666D02*
X162964762Y-119594285D01*
X163012381Y-119737142D01*
X163012381Y-119832380D01*
X162964762Y-119975238D01*
X162869524Y-120070476D01*
X162774286Y-120118095D01*
X162583810Y-120165714D01*
X162440952Y-120165714D01*
X162250476Y-120118095D01*
X162155238Y-120070476D01*
X162060000Y-119975238D01*
X162012381Y-119832380D01*
X162012381Y-119737142D01*
X162060000Y-119594285D01*
X162107619Y-119546666D01*
X162012381Y-119213333D02*
X162012381Y-118594285D01*
X162393333Y-118927619D01*
X162393333Y-118784761D01*
X162440952Y-118689523D01*
X162488571Y-118641904D01*
X162583810Y-118594285D01*
X162821905Y-118594285D01*
X162917143Y-118641904D01*
X162964762Y-118689523D01*
X163012381Y-118784761D01*
X163012381Y-119070476D01*
X162964762Y-119165714D01*
X162917143Y-119213333D01*
X162917143Y-111926666D02*
X162964762Y-111974285D01*
X163012381Y-112117142D01*
X163012381Y-112212380D01*
X162964762Y-112355238D01*
X162869524Y-112450476D01*
X162774286Y-112498095D01*
X162583810Y-112545714D01*
X162440952Y-112545714D01*
X162250476Y-112498095D01*
X162155238Y-112450476D01*
X162060000Y-112355238D01*
X162012381Y-112212380D01*
X162012381Y-112117142D01*
X162060000Y-111974285D01*
X162107619Y-111926666D01*
X162107619Y-111545714D02*
X162060000Y-111498095D01*
X162012381Y-111402857D01*
X162012381Y-111164761D01*
X162060000Y-111069523D01*
X162107619Y-111021904D01*
X162202857Y-110974285D01*
X162298095Y-110974285D01*
X162440952Y-111021904D01*
X163012381Y-111593333D01*
X163012381Y-110974285D01*
M02*
