G04 #@! TF.FileFunction,Copper,L2,Bot,Signal*
%FSLAX46Y46*%
G04 Gerber Fmt 4.6, Leading zero omitted, Abs format (unit mm)*
G04 Created by KiCad (PCBNEW 4.0.2-1.fc23-product) date Thu May 26 09:48:37 2016*
%MOMM*%
G01*
G04 APERTURE LIST*
%ADD10C,0.100000*%
%ADD11C,2.000000*%
%ADD12C,0.685800*%
%ADD13C,0.254000*%
G04 APERTURE END LIST*
D10*
D11*
X150495000Y-102870000D03*
X147955000Y-102870000D03*
X145415000Y-102870000D03*
X142875000Y-102870000D03*
X140335000Y-102870000D03*
X137795000Y-102870000D03*
X135255000Y-102870000D03*
X135255000Y-125730000D03*
X137795000Y-125730000D03*
X140335000Y-125730000D03*
X142875000Y-125730000D03*
X145415000Y-125730000D03*
X147955000Y-125730000D03*
X150495000Y-125730000D03*
D12*
X156210000Y-110490000D03*
X155575000Y-118745000D03*
X155575000Y-124460000D03*
X156210000Y-107950000D03*
D13*
G36*
X157353000Y-127560000D02*
X129609931Y-127560000D01*
X128845011Y-127407848D01*
X128255830Y-127014170D01*
X127862152Y-126424989D01*
X127788317Y-126053795D01*
X133619716Y-126053795D01*
X133868106Y-126654943D01*
X134327637Y-127115278D01*
X134928352Y-127364716D01*
X135578795Y-127365284D01*
X136179943Y-127116894D01*
X136525199Y-126772241D01*
X136867637Y-127115278D01*
X137468352Y-127364716D01*
X138118795Y-127365284D01*
X138719943Y-127116894D01*
X139065199Y-126772241D01*
X139407637Y-127115278D01*
X140008352Y-127364716D01*
X140658795Y-127365284D01*
X141259943Y-127116894D01*
X141605199Y-126772241D01*
X141947637Y-127115278D01*
X142548352Y-127364716D01*
X143198795Y-127365284D01*
X143799943Y-127116894D01*
X144145199Y-126772241D01*
X144487637Y-127115278D01*
X145088352Y-127364716D01*
X145738795Y-127365284D01*
X146339943Y-127116894D01*
X146685199Y-126772241D01*
X147027637Y-127115278D01*
X147628352Y-127364716D01*
X148278795Y-127365284D01*
X148879943Y-127116894D01*
X149225199Y-126772241D01*
X149567637Y-127115278D01*
X150168352Y-127364716D01*
X150818795Y-127365284D01*
X151419943Y-127116894D01*
X151880278Y-126657363D01*
X152129716Y-126056648D01*
X152130284Y-125406205D01*
X151881894Y-124805057D01*
X151422363Y-124344722D01*
X150821648Y-124095284D01*
X150171205Y-124094716D01*
X149570057Y-124343106D01*
X149224801Y-124687759D01*
X148882363Y-124344722D01*
X148281648Y-124095284D01*
X147631205Y-124094716D01*
X147030057Y-124343106D01*
X146684801Y-124687759D01*
X146342363Y-124344722D01*
X145741648Y-124095284D01*
X145091205Y-124094716D01*
X144490057Y-124343106D01*
X144144801Y-124687759D01*
X143802363Y-124344722D01*
X143201648Y-124095284D01*
X142551205Y-124094716D01*
X141950057Y-124343106D01*
X141604801Y-124687759D01*
X141262363Y-124344722D01*
X140661648Y-124095284D01*
X140011205Y-124094716D01*
X139410057Y-124343106D01*
X139064801Y-124687759D01*
X138722363Y-124344722D01*
X138121648Y-124095284D01*
X137471205Y-124094716D01*
X136870057Y-124343106D01*
X136524801Y-124687759D01*
X136182363Y-124344722D01*
X135581648Y-124095284D01*
X134931205Y-124094716D01*
X134330057Y-124343106D01*
X133869722Y-124802637D01*
X133620284Y-125403352D01*
X133619716Y-126053795D01*
X127788317Y-126053795D01*
X127710000Y-125660069D01*
X127710000Y-103193795D01*
X133619716Y-103193795D01*
X133868106Y-103794943D01*
X134327637Y-104255278D01*
X134928352Y-104504716D01*
X135578795Y-104505284D01*
X136179943Y-104256894D01*
X136525199Y-103912241D01*
X136867637Y-104255278D01*
X137468352Y-104504716D01*
X138118795Y-104505284D01*
X138719943Y-104256894D01*
X139065199Y-103912241D01*
X139407637Y-104255278D01*
X140008352Y-104504716D01*
X140658795Y-104505284D01*
X141259943Y-104256894D01*
X141605199Y-103912241D01*
X141947637Y-104255278D01*
X142548352Y-104504716D01*
X143198795Y-104505284D01*
X143799943Y-104256894D01*
X144145199Y-103912241D01*
X144487637Y-104255278D01*
X145088352Y-104504716D01*
X145738795Y-104505284D01*
X146339943Y-104256894D01*
X146574715Y-104022532D01*
X146982073Y-104022532D01*
X147080736Y-104289387D01*
X147690461Y-104515908D01*
X148340460Y-104491856D01*
X148829264Y-104289387D01*
X148927927Y-104022532D01*
X147955000Y-103049605D01*
X146982073Y-104022532D01*
X146574715Y-104022532D01*
X146767562Y-103830022D01*
X146802468Y-103842927D01*
X147775395Y-102870000D01*
X148134605Y-102870000D01*
X149107532Y-103842927D01*
X149142938Y-103829836D01*
X149567637Y-104255278D01*
X150168352Y-104504716D01*
X150818795Y-104505284D01*
X151419943Y-104256894D01*
X151880278Y-103797363D01*
X152129716Y-103196648D01*
X152130284Y-102546205D01*
X151881894Y-101945057D01*
X151422363Y-101484722D01*
X150821648Y-101235284D01*
X150171205Y-101234716D01*
X149570057Y-101483106D01*
X149142438Y-101909978D01*
X149107532Y-101897073D01*
X148134605Y-102870000D01*
X147775395Y-102870000D01*
X146802468Y-101897073D01*
X146767062Y-101910164D01*
X146574703Y-101717468D01*
X146982073Y-101717468D01*
X147955000Y-102690395D01*
X148927927Y-101717468D01*
X148829264Y-101450613D01*
X148219539Y-101224092D01*
X147569540Y-101248144D01*
X147080736Y-101450613D01*
X146982073Y-101717468D01*
X146574703Y-101717468D01*
X146342363Y-101484722D01*
X145741648Y-101235284D01*
X145091205Y-101234716D01*
X144490057Y-101483106D01*
X144144801Y-101827759D01*
X143802363Y-101484722D01*
X143201648Y-101235284D01*
X142551205Y-101234716D01*
X141950057Y-101483106D01*
X141604801Y-101827759D01*
X141262363Y-101484722D01*
X140661648Y-101235284D01*
X140011205Y-101234716D01*
X139410057Y-101483106D01*
X139064801Y-101827759D01*
X138722363Y-101484722D01*
X138121648Y-101235284D01*
X137471205Y-101234716D01*
X136870057Y-101483106D01*
X136524801Y-101827759D01*
X136182363Y-101484722D01*
X135581648Y-101235284D01*
X134931205Y-101234716D01*
X134330057Y-101483106D01*
X133869722Y-101942637D01*
X133620284Y-102543352D01*
X133619716Y-103193795D01*
X127710000Y-103193795D01*
X127710000Y-102939931D01*
X127862152Y-102175011D01*
X128255830Y-101585830D01*
X128845011Y-101192152D01*
X129609931Y-101040000D01*
X157353000Y-101040000D01*
X157353000Y-127560000D01*
X157353000Y-127560000D01*
G37*
X157353000Y-127560000D02*
X129609931Y-127560000D01*
X128845011Y-127407848D01*
X128255830Y-127014170D01*
X127862152Y-126424989D01*
X127788317Y-126053795D01*
X133619716Y-126053795D01*
X133868106Y-126654943D01*
X134327637Y-127115278D01*
X134928352Y-127364716D01*
X135578795Y-127365284D01*
X136179943Y-127116894D01*
X136525199Y-126772241D01*
X136867637Y-127115278D01*
X137468352Y-127364716D01*
X138118795Y-127365284D01*
X138719943Y-127116894D01*
X139065199Y-126772241D01*
X139407637Y-127115278D01*
X140008352Y-127364716D01*
X140658795Y-127365284D01*
X141259943Y-127116894D01*
X141605199Y-126772241D01*
X141947637Y-127115278D01*
X142548352Y-127364716D01*
X143198795Y-127365284D01*
X143799943Y-127116894D01*
X144145199Y-126772241D01*
X144487637Y-127115278D01*
X145088352Y-127364716D01*
X145738795Y-127365284D01*
X146339943Y-127116894D01*
X146685199Y-126772241D01*
X147027637Y-127115278D01*
X147628352Y-127364716D01*
X148278795Y-127365284D01*
X148879943Y-127116894D01*
X149225199Y-126772241D01*
X149567637Y-127115278D01*
X150168352Y-127364716D01*
X150818795Y-127365284D01*
X151419943Y-127116894D01*
X151880278Y-126657363D01*
X152129716Y-126056648D01*
X152130284Y-125406205D01*
X151881894Y-124805057D01*
X151422363Y-124344722D01*
X150821648Y-124095284D01*
X150171205Y-124094716D01*
X149570057Y-124343106D01*
X149224801Y-124687759D01*
X148882363Y-124344722D01*
X148281648Y-124095284D01*
X147631205Y-124094716D01*
X147030057Y-124343106D01*
X146684801Y-124687759D01*
X146342363Y-124344722D01*
X145741648Y-124095284D01*
X145091205Y-124094716D01*
X144490057Y-124343106D01*
X144144801Y-124687759D01*
X143802363Y-124344722D01*
X143201648Y-124095284D01*
X142551205Y-124094716D01*
X141950057Y-124343106D01*
X141604801Y-124687759D01*
X141262363Y-124344722D01*
X140661648Y-124095284D01*
X140011205Y-124094716D01*
X139410057Y-124343106D01*
X139064801Y-124687759D01*
X138722363Y-124344722D01*
X138121648Y-124095284D01*
X137471205Y-124094716D01*
X136870057Y-124343106D01*
X136524801Y-124687759D01*
X136182363Y-124344722D01*
X135581648Y-124095284D01*
X134931205Y-124094716D01*
X134330057Y-124343106D01*
X133869722Y-124802637D01*
X133620284Y-125403352D01*
X133619716Y-126053795D01*
X127788317Y-126053795D01*
X127710000Y-125660069D01*
X127710000Y-103193795D01*
X133619716Y-103193795D01*
X133868106Y-103794943D01*
X134327637Y-104255278D01*
X134928352Y-104504716D01*
X135578795Y-104505284D01*
X136179943Y-104256894D01*
X136525199Y-103912241D01*
X136867637Y-104255278D01*
X137468352Y-104504716D01*
X138118795Y-104505284D01*
X138719943Y-104256894D01*
X139065199Y-103912241D01*
X139407637Y-104255278D01*
X140008352Y-104504716D01*
X140658795Y-104505284D01*
X141259943Y-104256894D01*
X141605199Y-103912241D01*
X141947637Y-104255278D01*
X142548352Y-104504716D01*
X143198795Y-104505284D01*
X143799943Y-104256894D01*
X144145199Y-103912241D01*
X144487637Y-104255278D01*
X145088352Y-104504716D01*
X145738795Y-104505284D01*
X146339943Y-104256894D01*
X146574715Y-104022532D01*
X146982073Y-104022532D01*
X147080736Y-104289387D01*
X147690461Y-104515908D01*
X148340460Y-104491856D01*
X148829264Y-104289387D01*
X148927927Y-104022532D01*
X147955000Y-103049605D01*
X146982073Y-104022532D01*
X146574715Y-104022532D01*
X146767562Y-103830022D01*
X146802468Y-103842927D01*
X147775395Y-102870000D01*
X148134605Y-102870000D01*
X149107532Y-103842927D01*
X149142938Y-103829836D01*
X149567637Y-104255278D01*
X150168352Y-104504716D01*
X150818795Y-104505284D01*
X151419943Y-104256894D01*
X151880278Y-103797363D01*
X152129716Y-103196648D01*
X152130284Y-102546205D01*
X151881894Y-101945057D01*
X151422363Y-101484722D01*
X150821648Y-101235284D01*
X150171205Y-101234716D01*
X149570057Y-101483106D01*
X149142438Y-101909978D01*
X149107532Y-101897073D01*
X148134605Y-102870000D01*
X147775395Y-102870000D01*
X146802468Y-101897073D01*
X146767062Y-101910164D01*
X146574703Y-101717468D01*
X146982073Y-101717468D01*
X147955000Y-102690395D01*
X148927927Y-101717468D01*
X148829264Y-101450613D01*
X148219539Y-101224092D01*
X147569540Y-101248144D01*
X147080736Y-101450613D01*
X146982073Y-101717468D01*
X146574703Y-101717468D01*
X146342363Y-101484722D01*
X145741648Y-101235284D01*
X145091205Y-101234716D01*
X144490057Y-101483106D01*
X144144801Y-101827759D01*
X143802363Y-101484722D01*
X143201648Y-101235284D01*
X142551205Y-101234716D01*
X141950057Y-101483106D01*
X141604801Y-101827759D01*
X141262363Y-101484722D01*
X140661648Y-101235284D01*
X140011205Y-101234716D01*
X139410057Y-101483106D01*
X139064801Y-101827759D01*
X138722363Y-101484722D01*
X138121648Y-101235284D01*
X137471205Y-101234716D01*
X136870057Y-101483106D01*
X136524801Y-101827759D01*
X136182363Y-101484722D01*
X135581648Y-101235284D01*
X134931205Y-101234716D01*
X134330057Y-101483106D01*
X133869722Y-101942637D01*
X133620284Y-102543352D01*
X133619716Y-103193795D01*
X127710000Y-103193795D01*
X127710000Y-102939931D01*
X127862152Y-102175011D01*
X128255830Y-101585830D01*
X128845011Y-101192152D01*
X129609931Y-101040000D01*
X157353000Y-101040000D01*
X157353000Y-127560000D01*
M02*
